<svg version="1" xmlns="http://www.w3.org/2000/svg" width="21.333" height="21.333" viewBox="0 0 16.000000 16.000000"><path d="M7.54.01c-.003.002-.11.013-.234.02-.126.01-.233.018-.24.023a.957.957 0 0 1-.16.023 3.86 3.86 0 0 0-.251.036c-.058.012-.13.028-.163.032-.43.078-1.115.277-1.433.416l-.153.067a.565.565 0 0 1-.094.034c-.037 0-.69.343-.944.494-.311.19-.74.491-.921.649l-.167.137c-.14.114-.704.681-.855.857A8.095 8.095 0 0 0 .306 5.816c-.043.15-.084.3-.089.331l-.023.115a8.485 8.485 0 0 0-.14.811C.012 7.302-.004 8.37.03 8.708c.084.825.26 1.55.546 2.263a9.478 9.478 0 0 0 .544 1.109c0 .022.364.557.52.758.237.316.358.45.726.821a7.682 7.682 0 0 0 1.886 1.401 7.701 7.701 0 0 0 1.68.666c.274.073.755.171.937.192.163.018.284.034.39.052.05.01 1.942.019 4.205.023 3.816.01 4.122.007 4.216-.03a.481.481 0 0 0 .24-.71.504.504 0 0 0-.309-.222c-.03-.007-.887-.012-1.904-.012-1.767-.002-1.847-.004-1.795-.04.03-.024.092-.06.135-.085.147-.078.672-.432.835-.56.086-.071.178-.145.203-.163a3.38 3.38 0 0 0 .16-.137c.832-.743 1.463-1.559 1.916-2.48.061-.126.12-.247.132-.268.048-.087.25-.612.327-.852.08-.252.231-.855.256-1.03.007-.052.019-.118.023-.148.007-.032.018-.11.025-.171l.02-.17c.03-.18.044-.484.044-.893 0-.423-.02-.924-.04-.958a.862.862 0 0 1-.024-.15 2.734 2.734 0 0 0-.023-.184c-.004-.025-.025-.14-.048-.251-.324-1.738-1.268-3.354-2.663-4.563-.29-.252-.99-.752-1.051-.752a.025.025 0 0 1-.023-.023.023.023 0 0 0-.023-.023.486.486 0 0 1-.119-.06 9.347 9.347 0 0 0-.95-.463 8.267 8.267 0 0 0-2.086-.54C8.87.046 8.783.037 8.744.03A22.278 22.278 0 0 0 7.539.01zm1.158 1.003c.04.007.13.018.206.025.302.034.898.167 1.257.284.38.12.976.384 1.333.59a7.273 7.273 0 0 1 2.357 2.212c.137.21.203.323.425.732a8.06 8.06 0 0 1 .526 1.406c.174.77.206 1.033.206 1.737 0 .521-.028.882-.092 1.216a7.893 7.893 0 0 1-.245.956 7.07 7.07 0 0 1-3.218 3.938 7.285 7.285 0 0 1-2.766.876c-.247.025-1.097.025-1.335.002a5.355 5.355 0 0 1-.54-.073 7.887 7.887 0 0 1-.402-.08 7.005 7.005 0 0 1-3.564-2.082 4.687 4.687 0 0 1-.414-.49 7 7 0 0 1-1.42-3.602 13.085 13.085 0 0 1-.002-1.306c.03-.308.085-.651.144-.898l.046-.199c.041-.197.254-.805.38-1.09a7.131 7.131 0 0 1 1.415-2.08c.141-.15.464-.437.663-.595.21-.167.733-.528.765-.528.01 0 .044-.018.076-.043.114-.08.66-.343.93-.45.252-.1.713-.25.83-.27l.092-.023c.02-.007.07-.019.107-.026.039-.006.094-.018.126-.025.39-.077.503-.093.777-.114.107-.007.199-.018.206-.025.011-.012 1.038.009 1.131.025z"/><path d="M7.79 1.884a.997.997 0 0 1-.13.02c-.477.058-.955.3-1.33.675a2.34 2.34 0 0 0-.41 2.784A2.376 2.376 0 0 0 7.819 6.6a2.367 2.367 0 0 0 2.458-3.002 2.322 2.322 0 0 0-.807-1.202c-.33-.263-.654-.407-1.11-.491a4.71 4.71 0 0 0-.568-.021zm.622 1.038a1.383 1.383 0 0 1-.411 2.704c-.087 0-.187-.007-.222-.014a1.44 1.44 0 0 0-.114-.022 1.767 1.767 0 0 1-.448-.206 1.444 1.444 0 0 1-.572-.871A1.388 1.388 0 0 1 7.708 2.89c.192-.041.515-.028.704.032zM3.916 5.658a2.39 2.39 0 0 0-1.827 1.37 2.395 2.395 0 0 0 .074 2.089c.19.345.555.736.84.896.58.325 1.043.41 1.695.309l.148-.035A2.386 2.386 0 0 0 6.49 8.74c.09-.268.105-.384.105-.787-.002-.272-.011-.365-.055-.526A2.382 2.382 0 0 0 5.365 5.92a2.321 2.321 0 0 0-.466-.195 2.486 2.486 0 0 0-.983-.066zm.587.979c.55.1 1.036.6 1.111 1.145.021.15.014.4-.016.523a1.394 1.394 0 0 1-1.771 1.01 1.399 1.399 0 0 1-.908-.916 1.532 1.532 0 0 1 0-.8 1.44 1.44 0 0 1 .57-.754c.146-.099.377-.19.523-.21a.483.483 0 0 0 .098-.019 2.16 2.16 0 0 1 .393.02zM11.51 5.647c-.926.084-1.749.77-2.02 1.684-.074.24-.083.327-.083.702.002.284.011.377.052.538.282 1.046 1.182 1.769 2.234 1.792 1.1.023 2.08-.714 2.354-1.77a2.61 2.61 0 0 0 0-1.188 2.419 2.419 0 0 0-1.291-1.55 3.164 3.164 0 0 0-.519-.176 2.874 2.874 0 0 0-.727-.032zm.512.99c.476.089.91.477 1.054.948a1.39 1.39 0 0 1-.72 1.66c-.16.078-.194.087-.407.123-.624.108-1.303-.313-1.509-.935a1.407 1.407 0 0 1 .284-1.353c.313-.357.823-.53 1.298-.443zM7.88 7.386c-.597.128-.681.94-.121 1.185.173.077.409.064.562-.035a.632.632 0 0 0 .251-.786.642.642 0 0 0-.692-.364zM7.898 9.389c-1.173.078-2.08.912-2.242 2.062-.021.132-.019.512 0 .629.086.52.28.925.63 1.3.092.1.394.357.419.357.007 0 .068.036.142.08.2.121.516.23.795.276.126.021.544.023.697.003a2.417 2.417 0 0 0 1.056-.435 2.36 2.36 0 0 0 .945-1.577A2.368 2.368 0 0 0 8.744 9.51c-.233-.075-.3-.09-.526-.107l-.194-.016a.81.81 0 0 0-.126.002zm.286.994c.56.053 1.095.565 1.182 1.132a1.396 1.396 0 0 1-1.017 1.58c-.213.059-.547.05-.76-.017a1.478 1.478 0 0 1-.834-.715 1.383 1.383 0 0 1 .265-1.577 1.34 1.34 0 0 1 .782-.4c.066-.01.121-.016.126-.021a.239.239 0 0 1 .068.002c.035.003.12.012.188.016z"/></svg>