<svg xmlns="http://www.w3.org/2000/svg" viewBox="0 0 244.678 244.678"><path d="M122.34 101.129c19.966 0 36.209-16.243 36.209-36.208 0-19.966-16.243-36.209-36.209-36.209-19.967 0-36.211 16.243-36.211 36.209 0 19.966 16.244 36.208 36.211 36.208zm0-57.417c11.695 0 21.209 9.514 21.209 21.209 0 11.694-9.514 21.208-21.209 21.208-11.696 0-21.211-9.514-21.211-21.208 0-11.694 9.515-21.209 21.211-21.209zM158.548 179.755c0-19.965-16.244-36.208-36.21-36.208s-36.21 16.243-36.21 36.208c0 19.966 16.244 36.209 36.21 36.209s36.21-16.243 36.21-36.209zm-36.21 21.209c-11.695 0-21.21-9.514-21.21-21.209 0-11.694 9.515-21.208 21.21-21.208s21.21 9.514 21.21 21.208c0 11.695-9.515 21.209-21.21 21.209zM143.548 122.339c0 19.966 16.243 36.209 36.208 36.209 19.966 0 36.209-16.243 36.209-36.209 0-19.966-16.243-36.21-36.209-36.21-19.965 0-36.208 16.244-36.208 36.21zm36.208-21.21c11.695 0 21.209 9.515 21.209 21.21s-9.514 21.209-21.209 21.209c-11.694 0-21.208-9.514-21.208-21.209s9.514-21.21 21.208-21.21zM101.13 122.337c0-19.965-16.243-36.208-36.208-36.208-19.966 0-36.209 16.243-36.209 36.208 0 19.967 16.243 36.211 36.209 36.211 19.965 0 36.208-16.244 36.208-36.211zm-36.208 21.211c-11.695 0-21.209-9.515-21.209-21.211 0-11.694 9.514-21.208 21.209-21.208 11.694 0 21.208 9.514 21.208 21.208 0 11.696-9.514 21.211-21.208 21.211z"/><circle cx="122.339" cy="122.339" r="9.601"/><path d="M237.178 229.674h-56.191c37.923-20.803 63.691-61.116 63.691-107.337 0-67.455-54.88-122.334-122.336-122.334C54.882.004 0 54.882 0 122.337c0 67.457 54.882 122.337 122.342 122.337h114.836a7.5 7.5 0 0 0 0-15zM15 122.337C15 63.153 63.153 15.003 122.342 15.003c59.185 0 107.336 48.15 107.336 107.334 0 59.186-48.151 107.337-107.336 107.337C63.153 229.674 15 181.523 15 122.337z"/></svg>