<svg version="1" xmlns="http://www.w3.org/2000/svg" width="2341.333" height="1106.667" viewBox="0 0 1756.000000 830.000000"><path d="M760.3 23.5c-9.5 2.9-17.9 9.9-22.3 18.4-5.2 10.4-5 1-5 201.3 0 132.1.3 187.2 1.1 191 2.6 12.5 12.6 24.7 23.7 28.8 7.7 2.9 18.7 3 26.1.2 2.9-1.2 17.2-9 31.6-17.4l26.4-15.3 7-21c12.5-37.3 17-60.9 22-115.5 3.5-37.5 4.1-48.1 4.1-66.5-.1-15.8-.2-17.8-1.5-16.1-1.5 1.9-2.9 8.1-4 17.4-.6 4.4-.9 5.1-2.1 4.1-.8-.6-1.4-.9-1.4-.7 0 5.7-5.9 25.8-7.6 25.8-.6 0-1.7 1.3-2.4 3-.7 1.6-1.8 3-2.4 3-.6 0-2.2 3.7-3.5 8.2-2.4 7.7-2.6 8-3.9 5.9-1.5-2.1-1.6-1.9-3.7 4.6-1.2 3.7-3.4 9.2-4.9 12.2l-2.8 5.5-1.9-2.5c-1-1.3-1.9-1.9-1.9-1.2 0 2.3-7.2 9.7-21.2 21.8-16.2 14-17.5 14.3-16.5 4.4 1.3-11.5 12.7-39.9 23.4-58.1l5.1-8.7-2.8-.3c-2.8-.3-2.7-.5 6-10.4 4.9-5.5 8.8-10.7 8.7-11.6-.1-.9 3.1-5.2 7.1-9.6 3.9-4.4 7.2-8.3 7.2-8.6 0-.3-.8-.6-1.7-.6-1.2 0 .4-2.1 4.7-6l6.5-6-6.5 2.4c-3.6 1.3-7.4 2.7-8.4 3.2-1.5.6-1.7.4-1.1-.7.5-.8-.2-.5-1.4.6-1.6 1.3-2.4 1.6-2.9.8s-3.2.2-8.6 3.3c-4.3 2.5-8 4.3-8.3 4-.4-.3-2 .5-3.7 1.7-1.7 1.3-5.5 4.1-8.5 6.2-5 3.7-5.3 3.7-4.7 1.4.6-2 0-1.7-3.4 1.9-2.3 2.4-4.4 4.1-4.7 3.8-1-.9-8.3 5.3-21.6 18.3-10.8 10.6-12.7 12.1-12.1 9.6 2.3-10 12.8-32.1 19.8-41.9 2.4-3.4 7.3-8.9 10.8-12.3 11.7-11.2 20.5-15.4 37.2-17.9 5.6-.8 14.2-2.2 19.1-3.1l9-1.7-5.4-2.3c-2.9-1.3-8-2.6-11.2-3-3.3-.3-6.2-1-6.5-1.4-.3-.5-1.6-.9-2.9-.9-5.7 0-17.4-2.3-16.8-3.3.4-.7-1.9-.8-7.1-.4-5.5.5-7.5.4-7-.4.4-.7 0-.9-1.2-.5-1.1.3-5.3.8-9.5 1.1-4.2.2-11.2 1.5-15.7 2.8-4.9 1.5-8.2 2-8.2 1.3 0-2.5 13.2-13.8 20.1-17.1 11.3-5.4 19.6-6.8 36.3-6.2 20.4.7 32.4 4.6 50.1 16.1 7.6 5 8.6 5.4 9.5 3.8.5-.9 3.5-6.7 6.6-12.7 10.8-21.1 21.1-32.3 38.3-41.6 5.5-3 10.1-5.6 10.1-5.9 0-1.1-150.5-87.4-154.8-88.6-5.6-1.7-16.3-1.7-21.9.1z"/><path d="M956.2 127.8c-2.4.9-4.1 2.1-3.8 2.8.3.7-5.2 3.9-13.6 7.9-7.8 3.7-13.6 7-13 7.4.6.3-2 2.3-6 4.5-4.4 2.4-6.6 4.1-5.8 4.6.7.5-.5 1.5-3.4 3-3.5 1.6-6 4.2-10.5 10.3-3.3 4.5-5.8 8.3-5.6 8.5.2.2 5.4-.5 11.7-1.4 14.6-2.3 38.4-2.3 48.4-.1 21.5 4.9 35.9 14.4 42.8 28.4 3 6 6.2 16.1 5.3 16.9-.3.3-8.4-3.7-17.9-8.9-21.7-11.9-25.8-13.9-25.7-13 .3 2.1-.6 2-8.1-.8-4.8-1.7-8-2.4-8-1.8 0 1.1-11.9.6-16.4-.8-1.5-.4-1.8-.1-1.3 1.1.4.9.5 1.6.4 1.6-.1 0-3.3-.9-7.2-2-4.1-1.2-7.1-1.6-7.5-1-.3.5-2.2.4-4.6-.5-2.4-.8-5.8-1.1-8.3-.8l-4.2.6 8.2 4.4c11.3 6 16.4 9.9 25.7 19.7 12.1 12.9 19.3 27.9 21.1 44.4 2 18.3-3.4 36.2-16.1 53.5-2.8 3.7-5.1 6.7-5.2 6.5-.1-.2.1-5.9.6-12.8.9-14.6-.4-25.5-3.1-27-1.2-.6-2-2.6-2.4-6.2-.4-2.9-1.1-5.4-1.7-5.6-.5-.2-1-1.6-1-3.2 0-4.6-3.9-16-5.3-15.5-.8.3-2.5-3.4-5-10.7-5.5-16.2-11-26.9-16.3-31.7-2.4-2.3-4.8-4.1-5.2-4.1-1.8 0-2.1 8.4-1.7 55 .7 66.9-1 88.7-9.9 133.5-1.9 9.3-3.2 17.2-3.1 17.4.4.4 226.7-130 236.3-136.1 7.2-4.7 11.1-9.2 15-17.5 2.3-4.9 2.7-7.1 2.7-14.8 0-8.2-.3-9.7-3.2-15.5-1.8-3.6-5.4-8.6-8-11.2-3.5-3.4-24.7-16.1-78.8-47.4-40.7-23.5-74.7-42.8-75.5-43-.8-.2-3.4.4-5.8 1.4zM196.8 509.2l-4.8 1v17.6l7.4-.5c6.6-.5 7.6-.3 9.5 1.6l2.1 2.1v77.2c0 42.5.4 80.1.9 83.5 1.3 8.7 3.6 12.9 8.6 15.9 6.3 3.6 12.8 4.1 21.2 1.5 3.7-1.2 7.8-2.7 9-3.4l2.1-1.2-2.2-7c-1.9-5.8-2.6-6.9-4.2-6.7-8.7 1.6-10.2 1.5-12.1-1.4-1.7-2.7-1.8-7.5-2.3-85.4-.5-78.6-.6-82.7-2.4-86.3-1.1-2.2-3.7-5.1-5.9-6.5-3.4-2.3-5.1-2.6-13.1-2.8-5-.2-11.2.2-13.8.8zM967.8 509.2l-4.8 1v17.6l7.8-.5c12.9-.9 11.7-9.8 11.7 83.6v79.6l-9.7.3-9.8.3V708h60v-17h-19v-18.5l8.9-8.9 9-8.9 4.5 1.7c9.1 3.5 11.5 6.8 19.9 27.4 6.2 15 9.5 20.4 15 24 7.7 5.1 21.1 3.5 28.8-3.5 4-3.7 8-10.3 9.3-15.5.5-2.4.3-2.8-2.1-3.4-1.6-.3-4.4-1-6.3-1.4-9.2-2.1-8.8-2.1-9.4.3-1.7 6.8-8.4 9.9-12.4 5.9-1.1-1.1-3.8-7.9-6.2-15.3-6.5-20.7-11.4-28.8-19.6-32.9-2.7-1.4-5.1-2.6-5.3-2.7-.2-.1 4.9-5.9 11.4-12.8l11.7-12.5h20.8v-18h-59v17.9l6 .3 6 .3-15.5 15.5-15.5 15.5v-56c0-32.4-.5-59-1.1-63-1.1-8.1-4.3-13.6-9.1-16.2-4-2-18.9-2.7-26-1.1zM79.5 526.3c-8 2.7-13.4 6.7-16.2 12.2-3.6 6.7-4.3 12.7-4.3 35.2V596H40v18h19v45.2c0 27.6-.4 46.7-1 49-1.3 4.7-4.9 6.2-10.6 4.2-2.1-.8-4-1.4-4.1-1.4-.3 0-4.3 12.5-4.3 13.7 0 2.3 10.9 6.5 18.1 7 11.2.9 19.1-4.3 21.8-14.2.7-2.6 1.1-20.9 1.1-53.8V614h33v-18H80v-19.3c.1-20.6.9-26.9 4.2-30.4 2.7-2.9 6.2-3.6 12.8-2.3 9.2 1.7 12.4 7.5 9.1 16.3-.6 1.6-1.1 3-1.1 3.1 0 .7 16.2 3.7 17.4 3.3 2.2-.9 5-13 4.3-19.1-1-9.4-7.9-16.7-19.1-20.2-7.1-2.1-23-2.8-28.1-1.1zM1655.8 532.2l-3.8 1v15.4l6.9-.4c11-.6 10.1-7.4 10.1 74.8 0 73.2.1 75.6 4.3 81.4 4.3 6.1 15.8 7.7 26 3.5 3.3-1.3 5.9-2.6 6-2.9.1-.3-.7-3.3-1.7-6.8-1.4-5.2-2.1-6.2-3.4-5.7-.9.4-3.3.9-5.3 1.2-7.2 1-6.9 4.4-6.9-72.7 0-40-.4-71-1-74.5-1-6.3-2.9-9.6-7.4-12.9-2.2-1.7-4.4-2.1-11.4-2.3-4.8-.1-10.4.3-12.4.9zM148.3 550.4c-4.5 2.1-7.3 7-7.3 13 0 4.3.4 5.3 3.9 8.7 3.4 3.5 4.4 3.9 8.7 3.9 17.7 0 19.3-24.6 1.7-26.6-2.1-.2-5.2.2-7 1zM1380.5 550.4c-13.3 5.9-9.6 25.6 4.8 25.6 14.1 0 19-18.7 6.6-25-4.4-2.3-7.2-2.4-11.4-.6zM1436.3 550.4c-4.5 2-7.3 7-7.3 12.9 0 4 .5 5.3 3.3 8.4 2.9 3.1 4.1 3.7 8.8 4 6.6.5 10.7-1.7 13.2-7 2.2-4.6 2.1-8.5-.3-12.4-3.7-6.2-11.4-8.7-17.7-5.9zM141.5 593.7c-1.6.2-5.4.8-8.2 1.4l-5.3 1V614l2.8-.7c1.5-.3 4.8-.7 7.4-.7 8.6-.2 8.2-2.1 8.8 43.2.5 39.2.6 39.8 2.9 44.5 3.5 7 9.3 10.2 18.6 10.1 4.7 0 8.8-.7 12.5-2.2 8.5-3.4 8.2-2.8 5.7-11-1.9-6.4-2.4-7.2-4.2-6.6-1.1.3-3.9.9-6.2 1.1-3.7.4-4.3.2-6-2.3-1.6-2.6-1.8-6.2-2.3-42.4-.3-21.7-.9-40.4-1.4-41.5-1.9-4.3-4.9-7.6-8.4-9.4-3.9-2-11.8-3.1-16.7-2.4zM279 593.7c-1.4.2-4.2.9-6.2 1.4l-3.8 1v9c0 7.2.3 9 1.3 8.6.8-.3 3.9-.8 7-1.2 5.1-.7 5.8-.5 8.1 1.8l2.6 2.6V691h-19v17h60v-16.9l-9.7-.3-9.8-.3-.3-28.9c-.2-23.4.1-30 1.3-34.1 2.9-10.2 9.1-14.5 21.7-15.3 10.6-.6 17.1 1.1 21.8 5.8 5.7 5.7 6 8.1 6 51.4V708h40v-16.9l-9.2-.3-9.3-.3v-30c0-31.5.4-34.5 4.7-40.8 4.5-6.4 19-9.5 30.8-6.7 6.5 1.5 12.3 6.8 13.9 12.5.7 2.5 1.1 14.8 1.1 32.5 0 38.5 1.2 44.7 9.5 49.5 7.6 4.5 16.1 4.3 27.6-.6l4.7-2.1-2.2-7.1c-1.9-6-2.6-7.1-4.2-6.9-8.7 1.6-10.2 1.4-12-1.3-1.6-2.4-1.9-6.5-2.5-34.9-.4-20.8-1.1-33.5-1.9-36.1-3.5-11.2-10.1-19-18.8-21.9-2.5-.9-8.5-2.1-13.3-2.7-17.5-2.1-30.1 3.1-39.5 16.5l-2 3-2.6-4.5c-1.4-2.4-3.7-5.4-5-6.6-6.3-5.9-23.3-10.1-35.5-8.8-7.9.8-16.9 5.2-21.7 10.5-2 2.2-3.8 4-4 4-.2 0-.7-1.1-1-2.5-1-4.1-6.3-9.2-11.3-10.9-4.4-1.5-11.6-1.9-17.3-.9zM868.3 594.4c-16 3.1-23.3 11.3-23.3 26.5 0 9.4.1 9.4 10.2 8 8.6-1.2 8.6-1.2 7.9-3.8-1.1-3.8.5-8.6 3.6-10.7 4.2-2.9 23-2.7 29.4.2 7.9 3.7 11.8 11.1 11.9 22.5v4.6l-4.7-.8c-7.2-1.2-29.5-1-35.5.2-8.2 1.8-17.2 6.3-22 11.1-6.6 6.5-9.1 12.6-9.6 22.9-.7 14.6 3.8 24.9 13.4 30.5 5.1 3 13.8 5.4 19.9 5.4 10.9 0 26.3-5.7 34.5-12.7 2.3-2 4.2-3.4 4.4-3.2.1.2 1.1 2.3 2.1 4.7 3.5 8.1 11.2 12 21.2 10.8 6.4-.7 16.2-4.3 16.9-6.1.3-.7-.3-4.1-1.4-7.6-1.5-5.3-2.2-6.3-3.8-6.1-8.7 1.6-10.2 1.4-12.1-1.4-1.6-2.5-1.9-6-2.3-33.9-.5-29.3-.7-31.3-2.9-36.7-2.7-7.1-10.2-15.4-16.9-19.1-9.7-5.3-28.2-7.7-40.9-5.3zm38.8 59.1c.5.4.9 6.2.9 13v12.3l-4.2 3.7c-5.9 5-17.1 10.3-24.3 11.4-12.7 1.9-21.3-2.1-24-11.1-1.9-6.6-1.1-11.7 2.9-17.6 3.9-5.9 13.2-10.9 22.6-12.2 6.6-.9 24.3-.5 26.1.5zM1149 594c-13.8 2.5-19.8 6.2-23.7 14.6-2.1 4.7-2.5 6.7-2.1 12.9.2 4.1.6 7.7 1 8 .4.4 4.4.2 9-.5l8.3-1.1-.3-4.1c-.8-8.2 4.4-11.8 17.1-11.8 18.6 0 27.7 8 27.7 24.1v4.7l-16.4-.5c-18.7-.7-25.8.3-35.2 4.8-7.6 3.5-13.5 9.2-17 16.1-2.2 4.2-2.8 7.1-3.2 13.9-1 18.9 7.1 30.6 23.7 34.5 7.8 1.9 13.5 1.7 22.4-.5 8.9-2.3 13.3-4.4 20.7-10l5.4-4.1 2.5 5.3c5.5 11.2 17.7 13.6 33.9 6.7l5-2.2-2.2-7.1c-1.9-6.1-2.5-7.1-4.2-6.7-1 .2-3.9.4-6.4.5-7 0-7.4-1.4-7.2-28.6.2-12.4-.2-26.5-.7-31.3-2.2-19.5-12.4-31.3-30.7-36-7.5-1.8-21.5-2.7-27.4-1.6zm36.1 59.6c.5.3.9 6.1.9 12.8v12.4l-4.1 3.7c-2.3 2-7.4 5.2-11.3 7.1-15.8 7.4-30.6 5.9-35.7-3.6-2.3-4.1-2.5-12.6-.5-17.3 3.2-7.6 13.5-14.1 24.8-15.7 6.4-.8 24.2-.5 25.9.6zM1286.5 593.9c-21.6 2.6-36.7 15-44.3 36.3-2.3 6.5-2.6 8.9-2.6 20.8-.1 11.5.3 14.6 2.2 21 7.3 23.1 25.5 36.8 51.3 38.7 22.9 1.6 41.9-7.3 49.4-23.4 1.4-2.8 2.5-5.5 2.5-6 0-.4-4-2-8.8-3.4l-8.9-2.6-1.9 4.1c-4.3 9-14.6 13.2-29.9 12.4-14.3-.7-26.7-8.6-32.1-20.3-9.4-20.5-1.7-46.2 16.6-55.5 12.2-6.1 31.9-4.6 40.1 3.1 2.9 2.7 3.1 3.3 2.7 7.9-.6 5.6-1.2 5.1 9.7 7.4 4.5 1 7.3 1.1 8 .5 1.5-1.5 1.9-15.2.6-19.2-1.8-5.3-8.6-12.4-15.2-15.8-10-5-26.5-7.5-39.4-6zM1429.5 593.7c-1.6.2-5.4.8-8.2 1.4l-5.3 1V614l2.8-.7c5.4-1.3 11.9-.9 14 1 2 1.8 2.1 3.2 2.4 41 .4 43.7.5 44.6 7.4 50.6 6.4 5.6 15.3 6.4 26.4 2.2 8.4-3.2 8.1-2.7 5.7-10.9-1.9-6.5-2.4-7.2-4.2-6.6-4.4 1.4-9 1.5-10.9.1-3-2.2-3.5-8.8-3.5-45.8-.1-37-.5-40.5-5.3-45.6-4-4.3-13.3-6.8-21.3-5.6zM494 616v20h18v-22h54.2l-19 19.7c-10.4 10.9-26.9 28.1-36.6 38.3L493 690.5V708h102v-40h-17.9l-.3 11.2-.3 11.3-13 .3c-7.1.1-19.8-.1-28.1-.5l-15.1-.8 35.8-37.5 35.9-37.5V596h-98v20zM606 605v9h18.6l20.6 46.7 20.6 46.8h24.5l13.5-38.8c7.5-21.3 13.9-38.4 14.2-38 .4.5 6.7 18 14 39l13.3 38.3h24.2l20.6-46.8 20.6-46.7 9.6-.3 9.7-.3V596h-60v18h8.5c4.7 0 8.5.3 8.5.6 0 .8-28.3 64.5-28.5 64.2-.1-.2-6.6-18.9-14.5-41.6l-14.4-41.3-12 .3-11.9.3-13.1 37.5c-16.1 46.1-15.5 44.4-16 43.9-.3-.2-6.7-14.6-14.4-31.9l-13.9-31.5 8.3-.3 8.4-.3V596h-59v9zM1359 605v9h20.1l-.3 62.7c-.3 68.7-.2 66.7-6.3 72.3-3.8 3.6-12 3.4-19.3-.3-3.8-2-5.3-2.4-5.6-1.5-.3.7-1.1 3.5-2 6.2-.9 2.7-1.6 5.7-1.6 6.7 0 3.9 13.8 9.1 24.5 9.2 9.9 0 16.3-2.3 21.5-7.9 9.7-10.5 9.9-12.7 10-96.2V596h-41v9zM1537.3 608.1l-3.3 1v15.6l5.5-1c6.7-1.1 9.9.5 10.9 5.4.3 1.7.6 28.7.6 60V746h-17v16h52v-16h-17v-18.8c0-10.3.3-20.4.6-22.5l.7-3.8 2.1 1.9c11.2 10.3 35.3 10.2 53-.2 9.4-5.5 18.2-18.4 20.7-30.5 1.8-8.6.6-28.2-2.1-35.9-6.6-18.6-22.3-29.2-43.4-29.2-8 0-9.8.4-15.1 2.9-5.9 2.8-11.3 7.3-14.3 11.9-1.5 2.2-1.5 2.2-3.2-2.8-3.2-9.4-7.6-12.1-19.7-11.9-4.3 0-9.3.5-11 1zm73 17.7c10.1 4.5 17.1 14.5 18.5 26.5 2.1 17.9-4.8 32-18.7 38.6-4.9 2.3-6.9 2.6-16.1 2.6-9.3 0-11.1-.3-15.5-2.5-3.8-1.9-5.6-3.6-7.2-7-2.1-4.1-2.3-5.8-2.3-21 0-15 .3-17 2.4-22.2 3.8-9.3 9.6-14.7 18-16.9 4.8-1.3 16.1-.2 20.9 1.9zM1501.4 691.4c-2.8 2.8-3.4 4.1-3.4 7.9 0 12.8 18.5 14.7 21.6 2.1 1-3.7-1.5-9.4-5-11.5-4.9-3-9.2-2.5-13.2 1.5z"/></svg>