<svg xmlns="http://www.w3.org/2000/svg" version="1" width="526.001" height="590.802" viewBox="0 0 394.50101 443.10175"><path d="M27.301 1.363c-9.5 2.9-17.9 9.9-22.3 18.4-5.2 10.4-5 1-5 201.3 0 132.1.3 187.2 1.1 191 2.6 12.5 12.6 24.7 23.7 28.8 7.7 2.9 18.7 3 26.1.2 2.9-1.2 17.2-9 31.6-17.4l26.4-15.3 7-21c12.5-37.3 17-60.9 22-115.5 3.5-37.5 4.1-48.1 4.1-66.5-.1-15.8-.2-17.8-1.5-16.1-1.5 1.9-2.9 8.1-4 17.4-.6 4.4-.9 5.1-2.1 4.1-.8-.6-1.4-.9-1.4-.7 0 5.7-5.9 25.8-7.6 25.8-.6 0-1.7 1.3-2.4 3-.7 1.6-1.8 3-2.4 3-.6 0-2.2 3.7-3.5 8.2-2.4 7.7-2.6 8-3.9 5.9-1.5-2.1-1.6-1.9-3.7 4.6-1.2 3.7-3.4 9.2-4.9 12.2l-2.8 5.5-1.9-2.5c-1-1.3-1.9-1.9-1.9-1.2 0 2.3-7.2 9.7-21.2 21.8-16.2 14-17.5 14.3-16.5 4.4 1.3-11.5 12.7-39.9 23.4-58.1l5.1-8.7-2.8-.3c-2.8-.3-2.7-.5 6-10.4 4.9-5.5 8.8-10.7 8.7-11.6-.1-.9 3.1-5.2 7.1-9.6 3.9-4.4 7.2-8.3 7.2-8.6 0-.3-.8-.6-1.7-.6-1.2 0 .4-2.1 4.7-6l6.5-6-6.5 2.4c-3.6 1.3-7.4 2.7-8.4 3.2-1.5.6-1.7.4-1.1-.7.5-.8-.2-.5-1.4.6-1.6 1.3-2.4 1.6-2.9.8s-3.2.2-8.6 3.3c-4.3 2.5-8 4.3-8.3 4-.4-.3-2 .5-3.7 1.7-1.7 1.3-5.5 4.1-8.5 6.2-5 3.7-5.3 3.7-4.7 1.4.6-2 0-1.7-3.4 1.9-2.3 2.4-4.4 4.1-4.7 3.8-1-.9-8.3 5.3-21.6 18.3-10.8 10.6-12.7 12.1-12.1 9.6 2.3-10 12.8-32.1 19.8-41.9 2.4-3.4 7.3-8.9 10.8-12.3 11.7-11.2 20.5-15.4 37.2-17.9 5.6-.8 14.2-2.2 19.1-3.1l9-1.7-5.4-2.3c-2.9-1.3-8-2.6-11.2-3-3.3-.3-6.2-1-6.5-1.4-.3-.5-1.6-.9-2.9-.9-5.7 0-17.4-2.3-16.8-3.3.4-.7-1.9-.8-7.1-.4-5.5.5-7.5.4-7-.4.4-.7 0-.9-1.2-.5-1.1.3-5.3.8-9.5 1.1-4.2.2-11.2 1.5-15.7 2.8-4.9 1.5-8.2 2-8.2 1.3 0-2.5 13.2-13.8 20.1-17.1 11.3-5.4 19.6-6.8 36.3-6.2 20.4.7 32.4 4.6 50.1 16.1 7.6 5 8.6 5.4 9.5 3.8.5-.9 3.5-6.7 6.6-12.7 10.8-21.1 21.1-32.3 38.3-41.6 5.5-3 10.1-5.6 10.1-5.9 0-1.1-150.5-87.4-154.8-88.6-5.6-1.7-16.3-1.7-21.9.1z"/><path d="M223.201 105.663c-2.4.9-4.1 2.1-3.8 2.8.3.7-5.2 3.9-13.6 7.9-7.8 3.7-13.6 7-13 7.4.6.3-2 2.3-6 4.5-4.4 2.4-6.6 4.1-5.8 4.6.7.5-.5 1.5-3.4 3-3.5 1.6-6 4.2-10.5 10.3-3.3 4.5-5.8 8.3-5.6 8.5.2.2 5.4-.5 11.7-1.4 14.6-2.3 38.4-2.3 48.4-.1 21.5 4.9 35.9 14.4 42.8 28.4 3 6 6.2 16.1 5.3 16.9-.3.3-8.4-3.7-17.9-8.9-21.7-11.9-25.8-13.9-25.7-13 .3 2.1-.6 2-8.1-.8-4.8-1.7-8-2.4-8-1.8 0 1.1-11.9.6-16.4-.8-1.5-.4-1.8-.1-1.3 1.1.4.9.5 1.6.4 1.6-.1 0-3.3-.9-7.2-2-4.1-1.2-7.1-1.6-7.5-1-.3.5-2.2.4-4.6-.5-2.4-.8-5.8-1.1-8.3-.8l-4.2.6 8.2 4.4c11.3 6 16.4 9.9 25.7 19.7 12.1 12.9 19.3 27.9 21.1 44.4 2 18.3-3.4 36.2-16.1 53.5-2.8 3.7-5.1 6.7-5.2 6.5-.1-.2.1-5.9.6-12.8.9-14.6-.4-25.5-3.1-27-1.2-.6-2-2.6-2.4-6.2-.4-2.9-1.1-5.4-1.7-5.6-.5-.2-1-1.6-1-3.2 0-4.6-3.9-16-5.3-15.5-.8.3-2.5-3.4-5-10.7-5.5-16.2-11-26.9-16.3-31.7-2.4-2.3-4.8-4.1-5.2-4.1-1.8 0-2.1 8.4-1.7 55 .7 66.9-1 88.7-9.9 133.5-1.9 9.3-3.2 17.2-3.1 17.4.4.4 226.7-130 236.3-136.1 7.2-4.7 11.1-9.2 15-17.5 2.3-4.9 2.7-7.1 2.7-14.8 0-8.2-.3-9.7-3.2-15.5-1.8-3.6-5.4-8.6-8-11.2-3.5-3.4-24.7-16.1-78.8-47.4-40.7-23.5-74.7-42.8-75.5-43-.8-.2-3.4.4-5.8 1.4z"/></svg>